<svg width="24" height="24" viewBox="0 0 24 24" fill="none" xmlns="http://www.w3.org/2000/svg">
<path d="M2.6665 19.5833C2.6665 20.5495 3.56234 21.3333 4.6665 21.3333H19.3332C20.4373 21.3333 21.3332 20.5495 21.3332 19.5833V9.66666H2.6665V19.5833ZM15.9998 12.4375C15.9998 12.1969 16.2248 12 16.4998 12H18.1665C18.4415 12 18.6665 12.1969 18.6665 12.4375V13.8958C18.6665 14.1365 18.4415 14.3333 18.1665 14.3333H16.4998C16.2248 14.3333 15.9998 14.1365 15.9998 13.8958V12.4375ZM15.9998 17.1042C15.9998 16.8635 16.2248 16.6667 16.4998 16.6667H18.1665C18.4415 16.6667 18.6665 16.8635 18.6665 17.1042V18.5625C18.6665 18.8031 18.4415 19 18.1665 19H16.4998C16.2248 19 15.9998 18.8031 15.9998 18.5625V17.1042ZM10.6665 12.4375C10.6665 12.1969 10.8915 12 11.1665 12H12.8332C13.1082 12 13.3332 12.1969 13.3332 12.4375V13.8958C13.3332 14.1365 13.1082 14.3333 12.8332 14.3333H11.1665C10.8915 14.3333 10.6665 14.1365 10.6665 13.8958V12.4375ZM10.6665 17.1042C10.6665 16.8635 10.8915 16.6667 11.1665 16.6667H12.8332C13.1082 16.6667 13.3332 16.8635 13.3332 17.1042V18.5625C13.3332 18.8031 13.1082 19 12.8332 19H11.1665C10.8915 19 10.6665 18.8031 10.6665 18.5625V17.1042ZM5.33317 12.4375C5.33317 12.1969 5.55817 12 5.83317 12H7.49984C7.77484 12 7.99984 12.1969 7.99984 12.4375V13.8958C7.99984 14.1365 7.77484 14.3333 7.49984 14.3333H5.83317C5.55817 14.3333 5.33317 14.1365 5.33317 13.8958V12.4375ZM5.33317 17.1042C5.33317 16.8635 5.55817 16.6667 5.83317 16.6667H7.49984C7.77484 16.6667 7.99984 16.8635 7.99984 17.1042V18.5625C7.99984 18.8031 7.77484 19 7.49984 19H5.83317C5.55817 19 5.33317 18.8031 5.33317 18.5625V17.1042ZM19.3332 5H17.3332V3.25C17.3332 2.92916 17.0332 2.66666 16.6665 2.66666H15.3332C14.9665 2.66666 14.6665 2.92916 14.6665 3.25V5H9.33317V3.25C9.33317 2.92916 9.03317 2.66666 8.6665 2.66666H7.33317C6.9665 2.66666 6.6665 2.92916 6.6665 3.25V5H4.6665C3.56234 5 2.6665 5.78385 2.6665 6.75V8.5H21.3332V6.75C21.3332 5.78385 20.4373 5 19.3332 5Z" fill="#FDFBF5"/>
</svg>
