<svg width="512" height="513" viewBox="0 0 512 513" fill="none" xmlns="http://www.w3.org/2000/svg">
<path fill-rule="evenodd" clip-rule="evenodd" d="M235.67 0.28856C326.614 -3.47224 400.781 29.5278 458.17 99.2886C510.305 169.845 524.305 247.512 500.17 332.289C471.508 417.618 414.341 474.118 328.67 501.789C232.506 526.998 148.173 505.998 75.6698 438.789C14.8978 375.261 -9.2682 299.761 3.1698 212.289C24.4448 112.924 82.9448 46.0898 178.67 11.7886C197.459 6.19766 216.459 2.36436 235.67 0.28856Z" fill="#EB3D28"/>
<path fill-rule="evenodd" clip-rule="evenodd" d="M385.67 102.288C397.458 100.759 404.458 105.759 406.67 117.288C405.13 124.69 401.296 130.69 395.17 135.288C394.913 141.06 393.246 146.393 390.17 151.288C359.46 181.497 329.294 212.164 299.67 243.288C308.311 244.286 316.978 244.619 325.67 244.288C327.484 230.374 335.151 225.54 348.67 229.788C353.828 233.273 356.495 238.106 356.67 244.288C366.676 244.122 376.676 244.288 386.67 244.788C398.824 249.936 402.658 258.769 398.17 271.288C394.819 276.712 389.985 279.712 383.67 280.288C381.169 329.981 357.002 364.315 311.17 383.288C310.67 389.946 310.504 396.613 310.67 403.288C328.007 403.121 345.34 403.288 362.67 403.788C364.003 405.788 364.003 407.788 362.67 409.788C291.337 410.455 220.003 410.455 148.67 409.788C147.337 407.788 147.337 405.788 148.67 403.788C164 403.288 179.333 403.121 194.67 403.288C195 396.588 194.667 389.922 193.67 383.288C147.746 364.352 123.746 330.018 121.67 280.288C109.232 278.332 103.732 270.998 105.17 258.288C107.696 251.762 112.196 247.262 118.67 244.788C142.003 244.455 165.337 244.121 188.67 243.788C215.066 230.924 241.733 218.591 268.67 206.788C298.337 177.121 328.003 147.455 357.67 117.788C362.245 114.943 367.245 113.61 372.67 113.788C376.603 109.346 380.937 105.512 385.67 102.288Z" fill="#FDFBF5"/>
<path fill-rule="evenodd" clip-rule="evenodd" d="M387.67 109.288C396.377 108.825 399.877 112.825 398.17 121.288C396.486 123.139 394.653 124.806 392.67 126.288C390.143 121.594 386.476 118.094 381.67 115.788C383.876 113.751 385.876 111.585 387.67 109.288Z" fill="#EB3D28"/>
<path fill-rule="evenodd" clip-rule="evenodd" d="M365.67 121.288C378.625 119.419 385.958 124.919 387.67 137.788C387.218 141.197 386.051 144.364 384.17 147.288C362.837 168.621 341.503 189.955 320.17 211.288C312.837 203.955 305.503 196.621 298.17 189.288C297.503 188.621 297.503 187.955 298.17 187.288C320.26 164.696 342.76 142.696 365.67 121.288Z" fill="#EB3D28"/>
<path fill-rule="evenodd" clip-rule="evenodd" d="M161.67 150.288C177.197 148.031 186.197 154.531 188.67 169.788C186.083 185.247 177.083 191.581 161.67 188.788C150.736 183.751 146.569 175.251 149.17 163.288C151.523 157.103 155.69 152.77 161.67 150.288Z" fill="#FDFBF5"/>
<path fill-rule="evenodd" clip-rule="evenodd" d="M163.67 157.288C176.379 156.069 181.879 161.736 180.17 174.288C176.798 181.221 171.298 183.721 163.67 181.788C156.935 178.263 154.435 172.763 156.17 165.288C158.198 162.096 160.698 159.429 163.67 157.288Z" fill="#EB3D28"/>
<path fill-rule="evenodd" clip-rule="evenodd" d="M200.67 187.288C213.532 187.315 219.699 193.648 219.17 206.288C214.336 217.952 206.17 221.119 194.67 215.788C185.13 203.771 187.13 194.271 200.67 187.288Z" fill="#FDFBF5"/>
<path fill-rule="evenodd" clip-rule="evenodd" d="M290.67 194.288C299.082 201.195 307.082 208.695 314.67 216.788C309.822 221.803 304.822 226.636 299.67 231.288C292.337 223.621 285.003 215.955 277.67 208.288C282.025 203.601 286.358 198.934 290.67 194.288Z" fill="#EB3D28"/>
<path fill-rule="evenodd" clip-rule="evenodd" d="M200.67 195.288C209.948 194.164 213.448 198.164 211.17 207.288C205.212 213.127 200.212 212.46 196.17 205.288C195.247 200.805 196.747 197.471 200.67 195.288Z" fill="#EB3D28"/>
<path fill-rule="evenodd" clip-rule="evenodd" d="M152.67 199.288C166.522 197.596 173.355 203.596 173.17 217.288C169.595 227.825 162.429 231.659 151.67 228.788C142.597 222.897 140.43 215.064 145.17 205.288C147.284 202.667 149.784 200.667 152.67 199.288Z" fill="#FDFBF5"/>
<path fill-rule="evenodd" clip-rule="evenodd" d="M368.67 200.288C382.506 200.628 388.339 207.628 386.17 221.288C380.875 231.511 373.042 234.011 362.67 228.788C356.594 223.015 355.094 216.182 358.17 208.288C361.025 204.577 364.525 201.911 368.67 200.288Z" fill="#FDFBF5"/>
<path fill-rule="evenodd" clip-rule="evenodd" d="M154.67 206.288C163.377 205.825 166.877 209.825 165.17 218.288C160.915 223.225 156.248 223.559 151.17 219.288C148.495 213.799 149.662 209.466 154.67 206.288Z" fill="#EB3D28"/>
<path fill-rule="evenodd" clip-rule="evenodd" d="M367.67 208.288C376.328 207.115 380.162 210.782 379.17 219.288C375.278 225.047 370.611 225.714 365.17 221.288C362.628 216.226 363.462 211.893 367.67 208.288Z" fill="#EB3D28"/>
<path fill-rule="evenodd" clip-rule="evenodd" d="M258.67 221.288C258.67 220.621 258.337 220.288 257.67 220.288C260.67 217.953 264.004 216.453 267.67 215.788C264.642 217.632 261.642 219.466 258.67 221.288Z" fill="#FDFBF5"/>
<path fill-rule="evenodd" clip-rule="evenodd" d="M257.67 220.288C258.337 220.288 258.67 220.621 258.67 221.288C246.222 228.562 233.889 236.062 221.67 243.788C215.67 244.455 209.67 244.455 203.67 243.788C221.736 236.046 239.736 228.213 257.67 220.288Z" fill="#EB3D28"/>
<path fill-rule="evenodd" clip-rule="evenodd" d="M274.67 219.288C277.012 219.563 277.012 220.396 274.67 221.788C266.337 228.788 258.003 235.788 249.67 242.788C245.123 244.333 240.457 244.667 235.67 243.788C248.734 235.597 261.734 227.43 274.67 219.288Z" fill="#EB3D28"/>
<path fill-rule="evenodd" clip-rule="evenodd" d="M280.67 225.288C282.525 225.06 283.358 225.727 283.17 227.288C278.337 232.788 273.503 238.288 268.67 243.788C265.67 244.455 262.67 244.455 259.67 243.788C266.742 237.604 273.742 231.437 280.67 225.288Z" fill="#EB3D28"/>
<path fill-rule="evenodd" clip-rule="evenodd" d="M337.67 235.288C344.741 234.371 348.407 237.371 348.67 244.288C343.337 244.288 338.003 244.288 332.67 244.288C332.542 240.203 334.209 237.203 337.67 235.288Z" fill="#EB3D28"/>
<path fill-rule="evenodd" clip-rule="evenodd" d="M288.67 231.288C289.213 231.348 289.546 231.681 289.67 232.288C287.087 235.785 284.754 239.452 282.67 243.288C281.447 244.402 280.114 244.569 278.67 243.788C282.217 239.747 285.55 235.58 288.67 231.288Z" fill="#EB3D28"/>
<path fill-rule="evenodd" clip-rule="evenodd" d="M120.67 251.288C208.671 251.121 296.671 251.288 384.67 251.788C393.049 255.879 394.882 262.046 390.17 270.288C388.751 271.248 387.251 272.081 385.67 272.788C296.67 273.455 207.67 273.455 118.67 272.788C112.699 268.591 111.199 263.091 114.17 256.288C116.135 254.238 118.302 252.571 120.67 251.288Z" fill="#EB3D28"/>
<path fill-rule="evenodd" clip-rule="evenodd" d="M128.67 281.288C139.491 280.293 150.491 279.96 161.67 280.288C161.67 284.621 161.67 288.955 161.67 293.288C160.687 289.49 160.353 285.49 160.67 281.288C150.003 281.288 139.337 281.288 128.67 281.288Z" fill="#FDFBF5"/>
<path fill-rule="evenodd" clip-rule="evenodd" d="M128.67 281.288C139.337 281.288 150.003 281.288 160.67 281.288C160.353 285.49 160.687 289.49 161.67 293.288C162.564 302.24 165.564 310.407 170.67 317.788C158.087 317.005 145.754 314.672 133.67 310.788C130.369 301.265 128.703 291.432 128.67 281.288Z" fill="#EB3D28"/>
<path fill-rule="evenodd" clip-rule="evenodd" d="M168.67 281.288C171.688 281.123 174.688 281.29 177.67 281.788C174.209 287.16 171.709 292.993 170.17 299.288C168.809 293.381 168.309 287.381 168.67 281.288Z" fill="#EB3D28"/>
<path fill-rule="evenodd" clip-rule="evenodd" d="M185.67 281.288C192.012 281.122 198.345 281.288 204.67 281.788C194.263 291.187 185.763 302.02 179.17 314.288C177.615 309.406 177.282 304.406 178.17 299.288C179.858 292.917 182.358 286.917 185.67 281.288Z" fill="#EB3D28"/>
<path fill-rule="evenodd" clip-rule="evenodd" d="M214.67 281.288C222.344 281.122 230.011 281.288 237.67 281.788C225.559 296.236 211.892 308.903 196.67 319.788C192.967 320.367 189.301 320.2 185.67 319.288C187.779 313.073 190.946 307.407 195.17 302.288C201.508 295.117 208.008 288.117 214.67 281.288Z" fill="#EB3D28"/>
<path fill-rule="evenodd" clip-rule="evenodd" d="M246.67 281.288C251.016 281.122 255.349 281.289 259.67 281.788C254.209 290.879 248.376 299.712 242.17 308.288C238.303 312.49 234.137 316.323 229.67 319.788C222.366 320.991 215.033 321.325 207.67 320.788C222.21 309.082 235.21 295.915 246.67 281.288Z" fill="#EB3D28"/>
<path fill-rule="evenodd" clip-rule="evenodd" d="M267.67 281.288C270.027 281.125 272.36 281.291 274.67 281.788C269.648 292.999 264.482 304.166 259.17 315.288C258.092 317.178 256.425 318.178 254.17 318.288C250.308 319.337 246.475 319.337 242.67 318.288C252.757 307.107 261.09 294.773 267.67 281.288Z" fill="#EB3D28"/>
<path fill-rule="evenodd" clip-rule="evenodd" d="M282.67 281.288C314.003 281.288 345.337 281.288 376.67 281.288C376.217 294.432 373.55 307.099 368.67 319.288C367.67 319.621 366.67 319.955 365.67 320.288C332.68 315.49 299.68 314.156 266.67 316.288C272.291 304.714 277.625 293.048 282.67 281.288Z" fill="#EB3D28"/>
<path fill-rule="evenodd" clip-rule="evenodd" d="M136.67 319.288C181.328 329.545 226.328 331.045 271.67 323.788C292.67 323.121 313.67 323.121 334.67 323.788C344.854 324.305 354.854 325.805 364.67 328.288C352.079 350.709 333.746 366.542 309.67 375.788C271.337 376.455 233.003 376.455 194.67 375.788C167.246 365.196 147.912 346.363 136.67 319.288Z" fill="#EB3D28"/>
<path fill-rule="evenodd" clip-rule="evenodd" d="M273.67 332.288C279.403 331.683 284.736 332.85 289.67 335.788C293.739 339.41 293.572 342.576 289.17 345.288C287.058 344.18 285.224 342.68 283.67 340.788C278.268 338.309 273.935 339.642 270.67 344.788C266.683 345.127 265.183 343.294 266.17 339.288C268.185 336.376 270.685 334.043 273.67 332.288Z" fill="#FDFBF5"/>
<path fill-rule="evenodd" clip-rule="evenodd" d="M230.67 335.288C237.904 334.156 243.738 336.489 248.17 342.288C248.236 349.243 245.736 350.076 240.67 344.788C235.129 342.059 230.462 343.059 226.67 347.788C222.087 348.722 220.587 346.888 222.17 342.288C224.586 339.365 227.42 337.031 230.67 335.288Z" fill="#FDFBF5"/>
<path fill-rule="evenodd" clip-rule="evenodd" d="M194.67 347.289C201.976 346.199 207.809 348.533 212.17 354.289C211.278 361.677 208.444 362.177 203.67 355.789C198.268 353.31 193.935 354.643 190.67 359.789C185.601 359.468 184.434 356.968 187.17 352.289C189.649 350.475 192.149 348.808 194.67 347.289Z" fill="#FDFBF5"/>
<path fill-rule="evenodd" clip-rule="evenodd" d="M299.67 349.288C307.357 347.784 313.857 349.784 319.17 355.288C320.67 360.455 318.837 362.288 313.67 360.788C308.507 354.843 303.174 354.843 297.67 360.788C293.087 361.722 291.587 359.888 293.17 355.288C295.233 353.054 297.399 351.054 299.67 349.288Z" fill="#FDFBF5"/>
<path fill-rule="evenodd" clip-rule="evenodd" d="M254.67 354.288C262.296 352.854 268.462 355.187 273.17 361.288C274.242 364.341 273.242 366.341 270.17 367.288C268.058 366.18 266.224 364.68 264.67 362.788C258.91 360.086 254.243 361.419 250.67 366.788C246.683 367.127 245.183 365.294 246.17 361.288C248.611 358.334 251.445 356.001 254.67 354.288Z" fill="#FDFBF5"/>
<path fill-rule="evenodd" clip-rule="evenodd" d="M202.67 384.288C202.67 390.288 202.67 396.288 202.67 402.288C236.003 402.288 269.337 402.288 302.67 402.288C302.67 396.288 302.67 390.288 302.67 384.288C303.66 390.433 303.993 396.766 303.67 403.288C269.67 403.288 235.67 403.288 201.67 403.288C201.347 396.766 201.68 390.433 202.67 384.288Z" fill="#EB3D28"/>
<path fill-rule="evenodd" clip-rule="evenodd" d="M202.67 384.288C236.003 384.288 269.337 384.288 302.67 384.288C302.67 390.288 302.67 396.288 302.67 402.288C269.337 402.288 236.003 402.288 202.67 402.288C202.67 396.288 202.67 390.288 202.67 384.288Z" fill="#EB3D28"/>
</svg>
