<svg width="40" height="40" viewBox="0 0 40 40" fill="none" xmlns="http://www.w3.org/2000/svg">
<g clip-path="url(#clip0_457_677)">
<path fill-rule="evenodd" clip-rule="evenodd" d="M18.4117 0.0224998C25.5167 -0.27074 31.311 2.30236 35.7945 7.7418C39.8676 13.2433 40.9613 19.2992 39.0758 25.9095C36.8366 32.5628 32.3704 36.9683 25.6773 39.1258C18.1645 41.0915 11.576 39.454 5.9117 34.2136C1.16389 29.2601 -0.724078 23.3732 0.247641 16.5527C1.90975 8.80499 6.48006 3.59375 13.9586 0.919189C15.4265 0.483248 16.9109 0.184356 18.4117 0.0224998Z" fill="#FDFBF5"/>
<path fill-rule="evenodd" clip-rule="evenodd" d="M30.1303 7.97567C31.0512 7.85645 31.5981 8.24631 31.7709 9.14526C31.6506 9.72241 31.351 10.1902 30.8724 10.5488C30.8524 10.9988 30.7221 11.4147 30.4818 11.7963C28.0826 14.1518 25.7259 16.543 23.4115 18.9698C24.0866 19.0476 24.7637 19.0736 25.4428 19.0478C25.5845 17.9629 26.1835 17.586 27.2396 17.9172C27.6426 18.1889 27.851 18.5658 27.8646 19.0478C28.6464 19.0348 29.4276 19.0478 30.2084 19.0868C31.1579 19.4882 31.4574 20.1769 31.1068 21.1531C30.845 21.576 30.4674 21.8099 29.974 21.8548C29.7786 25.7295 27.8906 28.4066 24.3099 29.886C24.2709 30.4051 24.2579 30.925 24.2709 31.4455C25.6253 31.4324 26.9795 31.4455 28.3334 31.4844C28.4375 31.6404 28.4375 31.7963 28.3334 31.9523C22.7605 32.0043 17.1875 32.0043 11.6146 31.9523C11.5105 31.7963 11.5105 31.6404 11.6146 31.4844C12.8123 31.4455 14.0102 31.4324 15.2084 31.4455C15.2342 30.923 15.2081 30.4033 15.1303 29.886C11.5424 28.4095 9.66744 25.7324 9.50526 21.8548C8.53354 21.7023 8.10385 21.1304 8.21619 20.1394C8.41354 19.6306 8.7651 19.2797 9.27088 19.0868C11.0938 19.0608 12.9167 19.0348 14.7396 19.0088C16.8018 18.0058 18.8852 17.0441 20.9896 16.1238C23.3074 13.8106 25.625 11.4975 27.9428 9.18424C28.3002 8.96241 28.6908 8.85847 29.1146 8.87235C29.4219 8.526 29.7605 8.22705 30.1303 7.97567Z" fill="#333333"/>
<path fill-rule="evenodd" clip-rule="evenodd" d="M30.2866 8.52149C30.9669 8.48538 31.2403 8.79728 31.1069 9.45716C30.9754 9.60149 30.8322 9.73147 30.6772 9.84702C30.4798 9.48102 30.1933 9.20811 29.8179 9.02831C29.9902 8.86948 30.1465 8.70059 30.2866 8.52149Z" fill="#FDFBF5"/>
<path fill-rule="evenodd" clip-rule="evenodd" d="M28.5679 9.45715C29.58 9.31142 30.1529 9.74027 30.2866 10.7437C30.2513 11.0095 30.1602 11.2564 30.0132 11.4844C28.3466 13.1478 26.6798 14.8113 25.0132 16.4747C24.4403 15.9029 23.8673 15.3311 23.2945 14.7593C23.2423 14.7073 23.2423 14.6554 23.2945 14.6033C25.0202 12.8418 26.778 11.1264 28.5679 9.45715Z" fill="#FDFBF5"/>
<path fill-rule="evenodd" clip-rule="evenodd" d="M12.6303 11.7184C13.8434 11.5424 14.5465 12.0492 14.7397 13.2388C14.5376 14.4442 13.8345 14.9381 12.6303 14.7203C11.7761 14.3276 11.4506 13.6648 11.6538 12.732C11.8376 12.2497 12.1632 11.9119 12.6303 11.7184Z" fill="#333333"/>
<path fill-rule="evenodd" clip-rule="evenodd" d="M12.7868 12.2642C13.7797 12.1691 14.2093 12.611 14.0758 13.5897C13.8124 14.1303 13.3827 14.3252 12.7868 14.1745C12.2606 13.8997 12.0653 13.4708 12.2008 12.888C12.3593 12.6391 12.5546 12.4311 12.7868 12.2642Z" fill="#FDFBF5"/>
<path fill-rule="evenodd" clip-rule="evenodd" d="M15.6774 14.6033C16.6823 14.6055 17.1641 15.0993 17.1228 16.0848C16.7451 16.9943 16.1071 17.2412 15.2087 16.8256C14.4634 15.8886 14.6196 15.1478 15.6774 14.6033Z" fill="#333333"/>
<path fill-rule="evenodd" clip-rule="evenodd" d="M22.7085 15.1492C23.3657 15.6877 23.9907 16.2725 24.5835 16.9035C24.2047 17.2946 23.8141 17.6714 23.4116 18.0341C22.8387 17.4363 22.2658 16.8386 21.6929 16.2408C22.0331 15.8753 22.3716 15.5114 22.7085 15.1492Z" fill="#FDFBF5"/>
<path fill-rule="evenodd" clip-rule="evenodd" d="M15.6773 15.2271C16.4022 15.1395 16.6756 15.4514 16.4977 16.1628C16.0322 16.6181 15.6416 16.5661 15.3258 16.0069C15.2537 15.6573 15.3709 15.3973 15.6773 15.2271Z" fill="#FDFBF5"/>
<path fill-rule="evenodd" clip-rule="evenodd" d="M11.9274 15.539C13.0096 15.4071 13.5434 15.8749 13.529 16.9425C13.2497 17.7641 12.6898 18.0631 11.8493 17.8392C11.1405 17.3799 10.9712 16.7691 11.3415 16.0069C11.5066 15.8025 11.7019 15.6465 11.9274 15.539Z" fill="#333333"/>
<path fill-rule="evenodd" clip-rule="evenodd" d="M28.8023 15.617C29.8832 15.6435 30.3389 16.1893 30.1695 17.2544C29.7558 18.0515 29.1439 18.2465 28.3336 17.8392C27.8589 17.3891 27.7417 16.8563 27.982 16.2408C28.205 15.9514 28.4785 15.7436 28.8023 15.617Z" fill="#333333"/>
<path fill-rule="evenodd" clip-rule="evenodd" d="M12.0837 16.0848C12.764 16.0487 13.0374 16.3606 12.9041 17.0205C12.5716 17.4055 12.207 17.4315 11.8103 17.0985C11.6013 16.6705 11.6925 16.3326 12.0837 16.0848Z" fill="#FDFBF5"/>
<path fill-rule="evenodd" clip-rule="evenodd" d="M28.7245 16.2408C29.4009 16.1493 29.7004 16.4352 29.6229 17.0985C29.3188 17.5475 28.9542 17.5995 28.5292 17.2544C28.3306 16.8597 28.3957 16.5219 28.7245 16.2408Z" fill="#FDFBF5"/>
<path fill-rule="evenodd" clip-rule="evenodd" d="M20.2085 17.2544C20.2085 17.2024 20.1825 17.1765 20.1304 17.1765C20.3647 16.9944 20.6252 16.8774 20.9116 16.8256C20.6751 16.9694 20.4407 17.1124 20.2085 17.2544Z" fill="#333333"/>
<path fill-rule="evenodd" clip-rule="evenodd" d="M20.1304 17.1765C20.1825 17.1765 20.2085 17.2024 20.2085 17.2544C19.236 17.8216 18.2725 18.4064 17.3179 19.0088C16.8491 19.0608 16.3804 19.0608 15.9116 19.0088C17.323 18.4051 18.7293 17.7944 20.1304 17.1765Z" fill="#FDFBF5"/>
<path fill-rule="evenodd" clip-rule="evenodd" d="M21.4585 17.0985C21.6415 17.1199 21.6415 17.1849 21.4585 17.2934C20.8075 17.8392 20.1564 18.385 19.5054 18.9308C19.1501 19.0513 18.7856 19.0773 18.4116 19.0088C19.4322 18.3701 20.4479 17.7333 21.4585 17.0985Z" fill="#FDFBF5"/>
<path fill-rule="evenodd" clip-rule="evenodd" d="M21.9272 17.5663C22.0722 17.5485 22.1372 17.6005 22.1226 17.7223C21.745 18.1511 21.3673 18.58 20.9897 19.0088C20.7554 19.0608 20.521 19.0608 20.2866 19.0088C20.8391 18.5266 21.386 18.0458 21.9272 17.5663Z" fill="#FDFBF5"/>
<path fill-rule="evenodd" clip-rule="evenodd" d="M26.3804 18.3461C26.9328 18.2745 27.2192 18.5085 27.2398 19.0478C26.8232 19.0478 26.4064 19.0478 25.9898 19.0478C25.9798 18.7293 26.11 18.4954 26.3804 18.3461Z" fill="#FDFBF5"/>
<path fill-rule="evenodd" clip-rule="evenodd" d="M22.5522 18.0341C22.5947 18.0388 22.6207 18.0648 22.6304 18.1121C22.4286 18.3848 22.2463 18.6707 22.0835 18.9698C21.9879 19.0567 21.8838 19.0697 21.771 19.0088C22.0481 18.6937 22.3085 18.3688 22.5522 18.0341Z" fill="#FDFBF5"/>
<path fill-rule="evenodd" clip-rule="evenodd" d="M9.4272 19.5936C16.3023 19.5806 23.1773 19.5936 30.0522 19.6326C30.7068 19.9516 30.85 20.4324 30.4819 21.0751C30.371 21.1499 30.2538 21.2149 30.1303 21.27C23.1772 21.322 16.2241 21.322 9.27095 21.27C8.80447 20.9428 8.68728 20.5139 8.91939 19.9835C9.0729 19.8236 9.2422 19.6936 9.4272 19.5936Z" fill="#FDFBF5"/>
<path fill-rule="evenodd" clip-rule="evenodd" d="M10.0522 21.9328C10.8976 21.8552 11.757 21.8292 12.6304 21.8548C12.6304 22.1927 12.6304 22.5306 12.6304 22.8685C12.5536 22.5723 12.5275 22.2604 12.5522 21.9328C11.7189 21.9328 10.8856 21.9328 10.0522 21.9328Z" fill="#333333"/>
<path fill-rule="evenodd" clip-rule="evenodd" d="M10.0522 21.9328C10.8856 21.9328 11.7189 21.9328 12.5522 21.9328C12.5275 22.2604 12.5536 22.5723 12.6304 22.8685C12.7002 23.5665 12.9346 24.2033 13.3335 24.7788C12.3504 24.7177 11.3869 24.5358 10.4429 24.233C10.185 23.4904 10.0548 22.7237 10.0522 21.9328Z" fill="#FDFBF5"/>
<path fill-rule="evenodd" clip-rule="evenodd" d="M13.1773 21.9328C13.4131 21.9199 13.6475 21.9329 13.8805 21.9718C13.6101 22.3906 13.4147 22.8455 13.2945 23.3363C13.1882 22.8757 13.1491 22.4079 13.1773 21.9328Z" fill="#FDFBF5"/>
<path fill-rule="evenodd" clip-rule="evenodd" d="M14.5056 21.9328C15.0011 21.9198 15.4958 21.9328 15.99 21.9718C15.1769 22.7046 14.5129 23.5493 13.9978 24.5059C13.8763 24.1252 13.8503 23.7354 13.9197 23.3363C14.0515 22.8395 14.2469 22.3717 14.5056 21.9328Z" fill="#FDFBF5"/>
<path fill-rule="evenodd" clip-rule="evenodd" d="M16.771 21.9328C17.3705 21.9198 17.9695 21.9328 18.5679 21.9718C17.6217 23.0983 16.554 24.086 15.3647 24.9347C15.0754 24.9799 14.789 24.9669 14.5054 24.8957C14.6701 24.4111 14.9176 23.9694 15.2476 23.5702C15.7427 23.0111 16.2505 22.4653 16.771 21.9328Z" fill="#FDFBF5"/>
<path fill-rule="evenodd" clip-rule="evenodd" d="M19.271 21.9328C19.6105 21.9198 19.949 21.9329 20.2866 21.9718C19.86 22.6806 19.4043 23.3694 18.9194 24.0381C18.6173 24.3657 18.2919 24.6646 17.9429 24.9347C17.3722 25.0285 16.7994 25.0546 16.2241 25.0127C17.3601 24.1 18.3757 23.0733 19.271 21.9328Z" fill="#FDFBF5"/>
<path fill-rule="evenodd" clip-rule="evenodd" d="M20.9116 21.9328C21.0958 21.9201 21.278 21.933 21.4585 21.9718C21.0662 22.8459 20.6626 23.7166 20.2476 24.5839C20.1633 24.7312 20.0331 24.8092 19.8569 24.8178C19.5552 24.8996 19.2558 24.8996 18.9585 24.8178C19.7465 23.946 20.3976 22.9843 20.9116 21.9328Z" fill="#FDFBF5"/>
<path fill-rule="evenodd" clip-rule="evenodd" d="M22.0835 21.9328C24.5314 21.9328 26.9794 21.9328 29.4272 21.9328C29.3919 22.9577 29.1835 23.9453 28.8022 24.8957C28.7241 24.9217 28.646 24.9478 28.5679 24.9737C25.9905 24.5996 23.4124 24.4956 20.8335 24.6618C21.2726 23.7594 21.6894 22.8497 22.0835 21.9328Z" fill="#FDFBF5"/>
<path fill-rule="evenodd" clip-rule="evenodd" d="M10.6772 24.8958C14.1662 25.6955 17.6818 25.8125 21.2241 25.2466C22.8647 25.1946 24.5054 25.1946 26.146 25.2466C26.9416 25.2869 27.7229 25.4039 28.4897 25.5975C27.5061 27.3457 26.0738 28.5803 24.1929 29.3012C21.1981 29.3532 18.2033 29.3532 15.2085 29.3012C13.066 28.4753 11.5555 27.0069 10.6772 24.8958Z" fill="#FDFBF5"/>
<path fill-rule="evenodd" clip-rule="evenodd" d="M21.3804 25.9094C21.8283 25.8622 22.2449 25.9532 22.6304 26.1823C22.9483 26.4647 22.9352 26.7116 22.5913 26.923C22.4263 26.8366 22.283 26.7197 22.1616 26.5722C21.7396 26.3789 21.4011 26.4828 21.146 26.884C20.8345 26.9105 20.7173 26.7676 20.7944 26.4552C20.9519 26.2281 21.1472 26.0462 21.3804 25.9094Z" fill="#333333"/>
<path fill-rule="evenodd" clip-rule="evenodd" d="M18.0213 26.1433C18.5864 26.0551 19.0422 26.237 19.3884 26.6891C19.3936 27.2314 19.1983 27.2964 18.8025 26.8841C18.3696 26.6713 18.005 26.7492 17.7088 27.118C17.3507 27.1908 17.2335 27.0478 17.3572 26.6891C17.5459 26.4612 17.7674 26.2792 18.0213 26.1433Z" fill="#333333"/>
<path fill-rule="evenodd" clip-rule="evenodd" d="M15.2086 27.0791C15.7794 26.9941 16.2351 27.1761 16.5758 27.6249C16.5061 28.2009 16.2847 28.2399 15.9117 27.7418C15.4897 27.5485 15.1512 27.6525 14.8961 28.0537C14.5001 28.0287 14.4089 27.8338 14.6226 27.4689C14.8163 27.3275 15.0116 27.1975 15.2086 27.0791Z" fill="#333333"/>
<path fill-rule="evenodd" clip-rule="evenodd" d="M23.4119 27.2349C24.0124 27.1177 24.5202 27.2736 24.9353 27.7028C25.0525 28.1056 24.9093 28.2486 24.5056 28.1316C24.1023 27.6681 23.6856 27.6681 23.2556 28.1316C22.8976 28.2044 22.7804 28.0614 22.9041 27.7028C23.0652 27.5286 23.2345 27.3726 23.4119 27.2349Z" fill="#333333"/>
<path fill-rule="evenodd" clip-rule="evenodd" d="M19.896 27.6248C20.4918 27.513 20.9735 27.6949 21.3413 28.1706C21.4251 28.4086 21.3469 28.5646 21.1069 28.6384C20.9419 28.552 20.7987 28.4351 20.6772 28.2876C20.2272 28.0769 19.8626 28.1808 19.5835 28.5994C19.272 28.6259 19.1548 28.483 19.2319 28.1706C19.4226 27.9403 19.644 27.7584 19.896 27.6248Z" fill="#333333"/>
<path fill-rule="evenodd" clip-rule="evenodd" d="M15.8335 29.964C15.8335 30.4318 15.8335 30.8996 15.8335 31.3675C18.4377 31.3675 21.0419 31.3675 23.646 31.3675C23.646 30.8996 23.646 30.4318 23.646 29.964C23.7234 30.4431 23.7494 30.9369 23.7242 31.4455C21.0679 31.4455 18.4117 31.4455 15.7554 31.4455C15.7302 30.9369 15.7562 30.4431 15.8335 29.964Z" fill="#FDFBF5"/>
<path fill-rule="evenodd" clip-rule="evenodd" d="M15.8335 29.964C18.4376 29.964 21.0419 29.964 23.646 29.964C23.646 30.4318 23.646 30.8996 23.646 31.3675C21.0419 31.3675 18.4376 31.3675 15.8335 31.3675C15.8335 30.8996 15.8335 30.4318 15.8335 29.964Z" fill="#FDFBF5"/>
</g>
<defs>
<clipPath id="clip0_457_677">
<rect width="40" height="40" fill="white"/>
</clipPath>
</defs>
</svg>
