<svg width="25" height="24" viewBox="0 0 25 24" fill="none" xmlns="http://www.w3.org/2000/svg">
<path d="M22.6838 11.8359L13.0299 2.18907C12.9604 2.11942 12.8778 2.06417 12.7869 2.02647C12.696 1.98877 12.5986 1.96936 12.5002 1.96936C12.4018 1.96936 12.3044 1.98877 12.2135 2.02647C12.1226 2.06417 12.04 2.11942 11.9705 2.18907L2.3166 11.8359C2.03535 12.1172 1.87598 12.4992 1.87598 12.8977C1.87598 13.725 2.54863 14.3977 3.37598 14.3977H4.39316V21.2813C4.39316 21.6961 4.72832 22.0313 5.14316 22.0313H11.0002V16.7813H13.6252V22.0313H19.8572C20.2721 22.0313 20.6072 21.6961 20.6072 21.2813V14.3977H21.6244C22.0229 14.3977 22.4049 14.2406 22.6861 13.957C23.2697 13.3711 23.2697 12.4219 22.6838 11.8359Z" fill="white"/>
</svg>
