<svg width="24" height="24" viewBox="0 0 24 24" fill="none" xmlns="http://www.w3.org/2000/svg">
<path d="M6.0001 2.4C5.36358 2.4 4.75313 2.65286 4.30304 3.10295C3.85295 3.55303 3.6001 4.16348 3.6001 4.8V19.2C3.6001 19.8365 3.85295 20.447 4.30304 20.8971C4.75313 21.3471 5.36358 21.6 6.0001 21.6H15.6001C16.2366 21.6 16.8471 21.3471 17.2972 20.8971C17.7472 20.447 18.0001 19.8365 18.0001 19.2V4.8C18.0001 4.16348 17.7472 3.55303 17.2972 3.10295C16.8471 2.65286 16.2366 2.4 15.6001 2.4H6.0001ZM6.0001 6.6C6.0001 6.44087 6.06331 6.28826 6.17583 6.17574C6.28836 6.06322 6.44097 6 6.6001 6H15.0001C15.1592 6 15.3118 6.06322 15.4244 6.17574C15.5369 6.28826 15.6001 6.44087 15.6001 6.6V7.8C15.6001 7.95913 15.5369 8.11174 15.4244 8.22427C15.3118 8.33679 15.1592 8.4 15.0001 8.4H6.6001C6.44097 8.4 6.28836 8.33679 6.17583 8.22427C6.06331 8.11174 6.0001 7.95913 6.0001 7.8V6.6ZM19.2001 7.2H19.8001C19.9592 7.2 20.1118 7.26322 20.2244 7.37574C20.3369 7.48826 20.4001 7.64087 20.4001 7.8V9.6C20.4001 9.75913 20.3369 9.91174 20.2244 10.0243C20.1118 10.1368 19.9592 10.2 19.8001 10.2H19.2001V7.2ZM19.2001 11.4H19.8001C19.9592 11.4 20.1118 11.4632 20.2244 11.5757C20.3369 11.6883 20.4001 11.8409 20.4001 12V13.8C20.4001 13.9591 20.3369 14.1117 20.2244 14.2243C20.1118 14.3368 19.9592 14.4 19.8001 14.4H19.2001V11.4ZM19.2001 15.6H19.8001C19.9592 15.6 20.1118 15.6632 20.2244 15.7757C20.3369 15.8883 20.4001 16.0409 20.4001 16.2V18C20.4001 18.1591 20.3369 18.3117 20.2244 18.4243C20.1118 18.5368 19.9592 18.6 19.8001 18.6H19.2001V15.6Z" fill="#FDFBF5"/>
</svg>
