<svg width="38" height="38" viewBox="0 0 38 38" fill="none" xmlns="http://www.w3.org/2000/svg">
<path d="M35 35L28.7778 28.7778M27.8889 15.4444C27.8889 17.0787 27.567 18.6969 26.9416 20.2067C26.3162 21.7166 25.3996 23.0884 24.244 24.244C23.0884 25.3996 21.7166 26.3162 20.2067 26.9416C18.6969 27.567 17.0787 27.8889 15.4444 27.8889C13.8102 27.8889 12.192 27.567 10.6822 26.9416C9.17233 26.3162 7.80047 25.3996 6.64489 24.244C5.48932 23.0884 4.57267 21.7166 3.94728 20.2067C3.32189 18.6969 3 17.0787 3 15.4444C3 12.144 4.31111 8.97868 6.64489 6.64489C8.97868 4.31111 12.144 3 15.4444 3C18.7449 3 21.9102 4.31111 24.244 6.64489C26.5778 8.97868 27.8889 12.144 27.8889 15.4444Z" stroke="#4AAF73" stroke-width="5" stroke-linecap="round"/>
</svg>
