<svg width="30" height="30" viewBox="0 0 30 30" fill="none" xmlns="http://www.w3.org/2000/svg">
<path d="M4.52842 21.3715L4.34256 21.0438C3.28546 19.1802 2.73565 17.0718 2.74802 14.9293C2.76038 12.7867 3.33448 10.6849 4.41302 8.83358C5.49156 6.98225 7.0368 5.44617 8.89452 4.37868C10.7522 3.3112 12.8574 2.74962 15 2.75L4.52842 21.3715ZM4.52842 21.3715L4.75815 21.0729M4.52842 21.3715L4.75815 21.0729M4.75815 21.0729C5.43468 20.1937 6.30436 19.4818 7.29994 18.9923C8.29552 18.5028 9.39034 18.2488 10.4997 18.25H10.5M4.75815 21.0729L10.5 18.25M10.5 18C9.35226 17.9988 8.21962 18.2615 7.18964 18.768C6.24044 19.2346 5.40186 19.8967 4.72835 20.7097C4.74459 20.7389 4.76096 20.768 4.77747 20.7971L10.5 18ZM10.5 18H19.5H10.5ZM10.5 18.25H19.5H19.5003M10.5 18.25H19.5003M19.5003 18.25C20.6097 18.2488 21.7045 18.5028 22.7001 18.9923C23.6956 19.4818 24.5653 20.1937 25.2419 21.0729L25.4716 21.3715M19.5003 18.25L25.4716 21.3715M25.4716 21.3715L25.6574 21.0438M25.4716 21.3715L25.6574 21.0438M25.6574 21.0438C26.7145 19.1802 27.2643 17.0718 27.252 14.9293M25.6574 21.0438L27.252 14.9293M27.252 14.9293C27.2396 12.7867 26.6655 10.6849 25.587 8.83358M27.252 14.9293L25.587 8.83358M25.587 8.83358C24.5084 6.98225 22.9632 5.44617 21.1055 4.37868M25.587 8.83358L21.1055 4.37868M21.1055 4.37868C19.2478 3.3112 17.1426 2.74962 15 2.75L21.1055 4.37868ZM26.7161 23.9618L26.6403 24.0607L26.6454 24.0792L26.1999 24.5975L26.1997 24.5978C25.37 25.5655 24.4191 26.4222 23.3704 27.1468L23.3703 27.1468C20.9108 28.8472 17.9905 29.7555 15.0005 29.75H14.9998C12.8716 29.7519 10.7683 29.2922 8.83484 28.4028C6.9014 27.5134 5.18383 26.2153 3.8005 24.598L3.8001 24.5975L3.35462 24.0793L3.35977 24.0607L3.28387 23.9618C1.3118 21.3911 0.245147 18.2404 0.250017 15.0004V15C0.250017 6.85357 6.85358 0.25 15 0.25C23.1464 0.25 29.75 6.85357 29.75 15V15.0004C29.7547 18.2404 28.6881 21.391 26.7161 23.9618ZM11.9948 7.49479C12.7918 6.69776 13.8728 6.25 15 6.25C16.1272 6.25 17.2082 6.69776 18.0052 7.49479C18.8022 8.29182 19.25 9.37282 19.25 10.5C19.25 11.6272 18.8022 12.7082 18.0052 13.5052C17.2082 14.3022 16.1272 14.75 15 14.75C13.8728 14.75 12.7918 14.3022 11.9948 13.5052C11.1978 12.7082 10.75 11.6272 10.75 10.5C10.75 9.37282 11.1978 8.29182 11.9948 7.49479Z" fill="#FDFBF5" stroke="#FDFBF5" stroke-width="0.5"/>
</svg>
